PathFileType	4	(X/Y/Z)	/Users/visionmauri/Downloads/Videos/OAW03-top_Sports2D/OAW03-top_Sports2D_px_person00.trc
DataRate	CameraRate	NumFrames	NumMarkers	Units	OrigDataRate	OrigDataStartFrame	OrigNumFrames
30.0	30.0	12	22	m	30.0	1877	2146
Frame#	Time	Hip			RHip			RKnee			RAnkle			RBigToe			RSmallToe			RHeel			LHip			LKnee			LAnkle			LBigToe			LSmallToe			LHeel			Neck			Head			Nose			RShoulder			RElbow			RWrist			LShoulder			LElbow			LWrist			
		X1	Y1	Z1	X2	Y2	Z2	X3	Y3	Z3	X4	Y4	Z4	X5	Y5	Z5	X6	Y6	Z6	X7	Y7	Z7	X8	Y8	Z8	X9	Y9	Z9	X10	Y10	Z10	X11	Y11	Z11	X12	Y12	Z12	X13	Y13	Z13	X14	Y14	Z14	X15	Y15	Z15	X16	Y16	Z16	X17	Y17	Z17	X18	Y18	Z18	X19	Y19	Z19	X20	Y20	Z20	X21	Y21	Z21	X22	Y22	Z22
1877	62.59583527583528	511.50502690445023	1049.5261706602494	0.0	564.1723130142025	1053.3422828393643	0.0	552.0789843869147	1231.7872884750848	0.0	533.9854840525297	1401.4083383022983	0.0	515.1586266558704	1454.523957664352	0.0	553.1014589293812	1463.4465935817598	0.0	527.8849067104778	1435.5786020731211	0.0	462.6667485751789	1045.4805854817894	0.0	466.06837696958985	1187.6503245095014	0.0	476.47215515846966	1315.7156840421942	0.0	482.92854127654596	1326.9118369833918	0.0	456.21715506954024	1336.1662273532945	0.0	479.2300483434632	1345.9636518848768	0.0	533.4759406659061	752.5381853506161	0.0	536.0363302740992	626.3838104164375	0.0	531.9963329775238	702.8869605339916	0.0	627.3764945822004	809.5137051152215	0.0	649.8847509413964	950.6194421067601	0.0	638.7282937903759	1056.4150195460513	0.0	442.06087567618096	790.062182873889	0.0	394.90814457028904	925.0003086296679	0.0	357.33058461487246	1035.319366896062	0.0
1878	62.62918414918415	512.0596779576351	1047.8113710985197	0.0	564.1989331954701	1051.6450046809891	0.0	552.0927594020876	1228.4018608096146	0.0	534.0759680433853	1399.9411923808593	0.0	515.2370989067314	1452.7187094639532	0.0	552.0079770106876	1463.358021024638	0.0	527.648251107896	1434.5650761420275	0.0	464.01529044699157	1043.771293593896	0.0	468.874052466146	1178.0581006521395	0.0	481.06775829958576	1297.9222107473843	0.0	489.84370209814887	1305.412672180496	0.0	462.49767716214257	1315.2158481251763	0.0	485.7557585986621	1327.0376112582271	0.0	531.556194993774	750.3361300159222	0.0	533.6239989108925	627.2236162578506	0.0	528.6388551140734	703.3782401362706	0.0	624.9900581376814	807.0828171009392	0.0	648.5211046877777	945.0839075705716	0.0	636.1766999100935	1050.5153448444792	0.0	442.20260604294947	788.7295326072214	0.0	395.20799710752846	921.7407455303074	0.0	353.6395787489768	1030.9855272537177	0.0
1879	62.66253302253302	512.9911062266731	1046.3409180688157	0.0	564.7595022220521	1049.7087078378054	0.0	552.7203976832199	1225.1166507331832	0.0	534.5632957456511	1395.5579893948236	0.0	514.9211827188542	1452.3452535298866	0.0	550.306218809034	1461.7195936842168	0.0	526.474672035814	1431.2786360148855	0.0	465.7377708507095	1042.588530482523	0.0	471.82421873498583	1171.9491960809119	0.0	486.00224434690716	1286.7409651054259	0.0	496.9016708685193	1297.0835391008127	0.0	467.04989356033354	1306.8768587833686	0.0	492.4007288284136	1317.8862277369044	0.0	528.9656855812119	749.8124790129317	0.0	529.4252414244854	628.2915425766827	0.0	525.5568219846473	704.514569428034	0.0	621.9204889344509	804.5980812141964	0.0	646.47409136794	939.7527600364797	0.0	634.0923811256145	1045.652964172929	0.0	440.69499952543345	787.8450820213591	0.0	393.9462041636771	918.1641669151181	0.0	349.94755197324076	1027.92058232403	0.0
1880	62.6958818958819	513.9814729285813	1043.146039412571	0.0	565.3000855057359	1046.0040052817897	0.0	553.8507223938152	1220.3684657714257	0.0	535.5235084875493	1388.6087868779423	0.0	515.4126911930382	1449.6352765897261	0.0	549.1973763944595	1456.8464160485046	0.0	526.1498300502005	1424.8185298102908	0.0	467.3789223408785	1040.142921732352	0.0	475.51398183675934	1168.2122887313842	0.0	491.3114672114197	1280.9642512610576	0.0	501.5302565800335	1296.6531672690205	0.0	470.0979887713178	1307.2009121244807	0.0	498.2057197992483	1314.7455295681618	0.0	526.5827359384766	750.004386874553	0.0	525.5248359572811	629.2124909530705	0.0	522.9908162053174	705.2201321673564	0.0	618.3113673403662	801.8759437808603	0.0	644.3468734677041	935.7955302376714	0.0	632.0427862999607	1041.0454754489656	0.0	438.7613718685146	787.4983873495949	0.0	391.7422018947302	915.0621693709707	0.0	345.90995149677065	1025.1929044537744	0.0
1881	62.72923076923077	514.8090584604267	1037.6043423958758	0.0	565.5495045461544	1039.8333143284701	0.0	555.0220079748788	1213.0059742745484	0.0	536.8024371371222	1380.9150250910782	0.0	516.6487043418401	1439.5593989535507	0.0	549.1810592960411	1447.5374023955994	0.0	527.5412042200875	1416.6306120198774	0.0	468.75127806194376	1035.2310600480725	0.0	479.6959195710398	1163.7466900602196	0.0	495.47550125901876	1276.1292983247645	0.0	502.7308712882333	1296.2915697710193	0.0	471.73330195758	1306.996309598868	0.0	501.88011920517414	1310.6251844981532	0.0	524.4772080632796	749.0228334900311	0.0	523.5166845170179	629.3416701854395	0.0	520.568333407626	704.6262297366434	0.0	614.6703712635983	798.8895894280572	0.0	642.472703096766	933.2326362497711	0.0	630.0361290570473	1034.963135382003	0.0	437.5444377361851	786.9235452910733	0.0	389.9909788232752	912.3128760530353	0.0	341.96214869805647	1020.2987004355033	0.0
1882	62.76257964257964	515.2567166338824	1030.465147101756	0.0	565.5628854578466	1031.6208018127404	0.0	556.2548893292715	1202.9380633250157	0.0	538.4444071753627	1372.3294729803517	0.0	517.5979788759412	1424.853070538575	0.0	550.2259556167407	1435.1588701986113	0.0	530.7383030444846	1408.1058706152864	0.0	469.6917127738111	1027.7656135046682	0.0	482.8465988378205	1157.1480704978637	0.0	496.99059370933435	1271.1640182518497	0.0	501.6795976425556	1292.9448535958475	0.0	471.29699412586604	1302.0569282375752	0.0	502.5061914364879	1304.6738378580874	0.0	522.2565797800503	746.2797840288214	0.0	521.284168792886	627.2257052896445	0.0	517.9158783096877	701.4468914917819	0.0	611.8934959683664	794.9978946852441	0.0	640.5516497566482	929.2381083899195	0.0	628.7401360055966	1026.561858645934	0.0	436.7326753332021	784.6767458083136	0.0	389.4160937927837	908.4523060159285	0.0	339.33004731862314	1013.2788169707128	0.0
1883	62.795928515928516	514.8787706461629	1022.5610138443693	0.0	565.3525670381456	1022.7293318472786	0.0	557.7513204808646	1191.1136919251164	0.0	540.7791975723957	1360.6372684640753	0.0	518.2318529424164	1411.4548868375878	0.0	552.055188102921	1421.2690310507528	0.0	535.5455462951236	1397.8237627528413	0.0	469.9510199816047	1019.1811507673671	0.0	483.59543162002467	1150.215287534506	0.0	496.3215995261969	1267.5610169562933	0.0	499.5773772241007	1288.6015219414066	0.0	469.43729909891346	1296.233184817846	0.0	501.3968307026005	1299.737857901824	0.0	520.1373165380359	742.6088692568466	0.0	516.7767483279306	623.2319952252877	0.0	514.6338609770027	696.3453702918775	0.0	610.2171203521874	789.5636407839015	0.0	638.0240693992955	921.8176986334923	0.0	628.5650723280089	1017.2230809525865	0.0	435.6786797835326	780.6181621478116	0.0	389.40613634705807	902.9696779799261	0.0	338.77220814393274	1006.2077995433673	0.0
1884	62.82927738927739	513.8579500829898	1014.1377416864013	0.0	564.5426791149911	1014.2471063050559	0.0	559.011956605398	1177.878544529451	0.0	543.7773700066455	1343.50145749184	0.0	519.5381298714437	1395.9826264237527	0.0	554.5323676404173	1402.9672274902491	0.0	541.3101922681155	1381.8989407174345	0.0	469.6477364646934	1011.0757513355628	0.0	482.09622066035394	1145.112538245282	0.0	494.821135580581	1265.4518940944374	0.0	497.4757064017662	1284.5826142482147	0.0	468.12028233985205	1292.821524274422	0.0	500.5768843377928	1296.533209553438	0.0	518.5505477767667	738.6264620189497	0.0	511.72666787435577	619.9560499096478	0.0	510.98082085144756	692.4098016089346	0.0	608.9673364711065	782.7363938819981	0.0	634.7499662322336	912.9901064587945	0.0	628.9486973862012	1009.1392058661712	0.0	434.83294379041826	776.0538022411306	0.0	389.1962510397016	897.3444453967351	0.0	339.99614157584307	999.9809763960333	0.0
1885	62.862626262626264	512.8885580540041	1004.6904258493591	0.0	562.6217730690115	1005.4291023699278	0.0	559.143838500868	1162.0407618403372	0.0	546.8662528942282	1319.1659379042512	0.0	521.8872531035169	1371.7245871332443	0.0	557.8482566428579	1377.285680587329	0.0	547.1352747270754	1357.5219591025414	0.0	469.1262025401412	1002.966835392129	0.0	479.6199905216194	1141.0453000259336	0.0	493.3859531284937	1264.3085870143354	0.0	496.28898909645744	1279.9224105599965	0.0	468.0632824527141	1290.2970867512709	0.0	500.50231960052207	1294.3486280365905	0.0	517.6029986245112	733.916259017888	0.0	508.9513979313837	618.7219286744233	0.0	508.5132274845921	690.6766287161596	0.0	607.6643141091481	775.2383892672146	0.0	631.2278080587291	905.1157002444182	0.0	629.1276490119159	1002.9467707750225	0.0	435.01847138857846	771.446039522356	0.0	389.1953674076058	892.7535305168071	0.0	342.6301071589799	993.8750991728076	0.0
1886	62.895975135975135	511.98004743290863	994.0325304156685	0.0	559.9351267852057	994.7706216222091	0.0	557.8543697707282	1143.6574975644617	0.0	549.4520149340908	1289.335668987471	0.0	524.7977470496193	1342.799471886668	0.0	561.595305680057	1348.6980933825614	0.0	551.9752424829401	1327.1046084641248	0.0	468.22704825944203	993.274053221179	0.0	477.3938318065223	1135.8020902986095	0.0	492.6754157501371	1264.005253443439	0.0	496.2216196218737	1275.9954270660035	0.0	468.4427717144185	1288.0708339829905	0.0	500.6074919145295	1293.4710982854683	0.0	517.3051665274751	728.4961712317123	0.0	508.6678096909646	617.8720928176864	0.0	508.7184099787515	688.5378115797836	0.0	606.3716980430179	767.7022950435716	0.0	628.4166833077696	897.110418659549	0.0	629.0301867229863	997.1123512711637	0.0	436.0994995945585	765.8987583554297	0.0	390.82853831536386	887.7574783649821	0.0	347.1210508073724	987.1120550925498	0.0
1887	62.929324009324006	510.5605989693346	983.4797474871244	0.0	557.3811990336997	982.8044518516168	0.0	555.7445769023196	1126.193041348049	0.0	550.9293029235341	1260.77236859762	0.0	527.9978588346424	1318.549688166658	0.0	564.6964457541277	1324.655407882106	0.0	554.3357433132476	1297.8135575796202	0.0	466.2947554034884	982.0893424847069	0.0	475.8822506246224	1129.4519469180304	0.0	492.6523963036383	1264.1404725672612	0.0	496.7418286625174	1275.385989762656	0.0	468.5344001018452	1287.8522647854224	0.0	500.3543763833947	1294.4474042450374	0.0	517.4250693738081	723.4460661809981	0.0	509.2597856087707	615.7038351228987	0.0	511.0055508394968	684.2810133811117	0.0	605.2032281459072	760.6946487162036	0.0	626.9816787197797	888.243747971976	0.0	628.8939529168041	990.5288722206957	0.0	437.1397766705109	759.1724753819852	0.0	394.62998566828907	880.7981755777004	0.0	353.8329013674411	979.7936095479905	0.0
1888	62.962672882672884	508.8101038740563	974.3468885871338	0.0	555.2469797135224	971.9982000303663	0.0	553.947211554174	1113.107545650701	0.0	550.6489146688828	1240.0910401501305	0.0	531.1049256264793	1300.0149706468871	0.0	566.6970507180317	1306.1421965775935	0.0	553.0837215427831	1276.3541483479353	0.0	463.39554231434096	971.2836960685926	0.0	474.9830750881529	1123.8921603306837	0.0	492.45554247202523	1264.0378487797393	0.0	497.1506749657548	1278.1554711013869	0.0	468.50948386688714	1289.9597009271542	0.0	499.3699348497235	1296.428913859391	0.0	517.5406059614622	718.8989877444128	0.0	509.8224694951381	612.7206002933821	0.0	513.1231151264886	679.2528080782517	0.0	604.1027416625213	754.7672890559536	0.0	626.5144485561802	881.2479191551187	0.0	628.7220030720194	984.2940101750286	0.0	437.70085933759594	752.4857883691751	0.0	399.04828386029044	873.4784732210434	0.0	362.0462115850909	972.4433776284218	0.0
